<mxfile host="app.diagrams.net" modified="2021-05-17T02:37:17.992Z" agent="5.0 (Macintosh; Intel Mac OS X 10_15_6) AppleWebKit/605.1.15 (KHTML, like Gecko) Version/13.1.2 Safari/605.1.15" etag="7SI2XvkoGkDJBqu2h8cO" version="14.6.13" type="github">
  <diagram id="C5RBs43oDa-KdzZeNtuy" name="Page-1">
    <mxGraphModel dx="946" dy="662" grid="1" gridSize="10" guides="1" tooltips="1" connect="1" arrows="1" fold="1" page="1" pageScale="1" pageWidth="827" pageHeight="1169" math="0" shadow="0">
      <root>
        <mxCell id="WIyWlLk6GJQsqaUBKTNV-0" />
        <mxCell id="WIyWlLk6GJQsqaUBKTNV-1" parent="WIyWlLk6GJQsqaUBKTNV-0" />
        <mxCell id="E3Nogs1kp5RzgQY4alXV-10" value="&lt;span lang=&quot;EN-HK&quot; style=&quot;font-size: 12pt ; font-family: &amp;#34;calibri&amp;#34; , sans-serif&quot;&gt;User module&lt;/span&gt;&lt;span style=&quot;font-size: medium&quot;&gt;&lt;/span&gt;" style="rounded=0;whiteSpace=wrap;html=1;" vertex="1" parent="WIyWlLk6GJQsqaUBKTNV-1">
          <mxGeometry x="320" y="80" width="120" height="60" as="geometry" />
        </mxCell>
        <mxCell id="E3Nogs1kp5RzgQY4alXV-12" style="edgeStyle=orthogonalEdgeStyle;rounded=0;orthogonalLoop=1;jettySize=auto;html=1;entryX=0;entryY=0.5;entryDx=0;entryDy=0;" edge="1" parent="WIyWlLk6GJQsqaUBKTNV-1" source="E3Nogs1kp5RzgQY4alXV-11" target="E3Nogs1kp5RzgQY4alXV-10">
          <mxGeometry relative="1" as="geometry" />
        </mxCell>
        <mxCell id="E3Nogs1kp5RzgQY4alXV-11" value="&lt;p class=&quot;MsoNormal&quot; style=&quot;margin: 0cm ; font-size: medium ; font-family: &amp;#34;calibri&amp;#34; , sans-serif&quot;&gt;&lt;span lang=&quot;EN-HK&quot;&gt;Account application(for general public) sub module&lt;/span&gt;&lt;/p&gt;" style="rounded=0;whiteSpace=wrap;html=1;" vertex="1" parent="WIyWlLk6GJQsqaUBKTNV-1">
          <mxGeometry x="80" y="170" width="190" height="70" as="geometry" />
        </mxCell>
        <mxCell id="E3Nogs1kp5RzgQY4alXV-14" style="edgeStyle=orthogonalEdgeStyle;rounded=0;orthogonalLoop=1;jettySize=auto;html=1;entryX=0;entryY=1;entryDx=0;entryDy=0;" edge="1" parent="WIyWlLk6GJQsqaUBKTNV-1" source="E3Nogs1kp5RzgQY4alXV-13" target="E3Nogs1kp5RzgQY4alXV-10">
          <mxGeometry relative="1" as="geometry" />
        </mxCell>
        <mxCell id="E3Nogs1kp5RzgQY4alXV-13" value="&lt;p class=&quot;MsoNormal&quot; style=&quot;margin: 0cm ; font-size: medium ; font-family: &amp;#34;calibri&amp;#34; , sans-serif&quot;&gt;&lt;span lang=&quot;EN-HK&quot;&gt;Account creation for doctors and staff sub module&lt;/span&gt;&lt;/p&gt;" style="rounded=0;whiteSpace=wrap;html=1;" vertex="1" parent="WIyWlLk6GJQsqaUBKTNV-1">
          <mxGeometry x="180" y="330" width="200" height="60" as="geometry" />
        </mxCell>
        <mxCell id="E3Nogs1kp5RzgQY4alXV-16" style="edgeStyle=orthogonalEdgeStyle;rounded=0;orthogonalLoop=1;jettySize=auto;html=1;exitX=0.25;exitY=0;exitDx=0;exitDy=0;entryX=0.75;entryY=1;entryDx=0;entryDy=0;" edge="1" parent="WIyWlLk6GJQsqaUBKTNV-1" source="E3Nogs1kp5RzgQY4alXV-15" target="E3Nogs1kp5RzgQY4alXV-10">
          <mxGeometry relative="1" as="geometry" />
        </mxCell>
        <mxCell id="E3Nogs1kp5RzgQY4alXV-15" value="&lt;p class=&quot;MsoNormal&quot; style=&quot;margin: 0cm ; font-size: medium ; font-family: &amp;#34;calibri&amp;#34; , sans-serif&quot;&gt;&lt;span lang=&quot;EN-HK&quot;&gt;System login handling sub module&lt;/span&gt;&lt;/p&gt;" style="rounded=0;whiteSpace=wrap;html=1;" vertex="1" parent="WIyWlLk6GJQsqaUBKTNV-1">
          <mxGeometry x="414" y="330" width="170" height="60" as="geometry" />
        </mxCell>
        <mxCell id="E3Nogs1kp5RzgQY4alXV-18" style="edgeStyle=orthogonalEdgeStyle;rounded=0;orthogonalLoop=1;jettySize=auto;html=1;exitX=0;exitY=0.5;exitDx=0;exitDy=0;entryX=1;entryY=0.5;entryDx=0;entryDy=0;" edge="1" parent="WIyWlLk6GJQsqaUBKTNV-1" source="E3Nogs1kp5RzgQY4alXV-17" target="E3Nogs1kp5RzgQY4alXV-10">
          <mxGeometry relative="1" as="geometry" />
        </mxCell>
        <mxCell id="E3Nogs1kp5RzgQY4alXV-17" value="&lt;p class=&quot;MsoNormal&quot; style=&quot;margin: 0cm ; font-size: medium ; font-family: &amp;#34;calibri&amp;#34; , sans-serif&quot;&gt;&lt;span lang=&quot;EN-HK&quot;&gt;Account manage and privilege assign sub module&lt;/span&gt;&lt;/p&gt;" style="rounded=0;whiteSpace=wrap;html=1;" vertex="1" parent="WIyWlLk6GJQsqaUBKTNV-1">
          <mxGeometry x="510" y="140" width="190" height="60" as="geometry" />
        </mxCell>
      </root>
    </mxGraphModel>
  </diagram>
</mxfile>
